<?xml version="1.0" standalone="no"?><!DOCTYPE svg PUBLIC "-//W3C//DTD SVG 1.1//EN" "http://www.w3.org/Graphics/SVG/1.1/DTD/svg11.dtd"><svg t="1708416482839" class="icon" viewBox="0 0 1024 1024" version="1.1" xmlns="http://www.w3.org/2000/svg" p-id="7162" xmlns:xlink="http://www.w3.org/1999/xlink" width="200" height="200"><path d="M495.104 916.992c-40.448 0-79.36-8.704-115.712-25.6-19.456-9.216-37.888-20.48-55.296-33.28l-12.8-9.728-9.216 12.8c-13.312 18.432-30.208 32.256-49.664 39.936-14.336 6.144-30.208 9.216-47.104 9.216-3.072 0-6.144 0-9.216-0.512-33.28-2.048-58.368-14.336-60.928-15.36-5.12-2.56-8.192-7.68-8.704-13.312 0-5.632 3.072-11.264 8.192-13.824 42.496-23.04 51.712-76.8 53.76-98.816l1.024-13.312-13.312-3.072c-28.672-6.656-51.712-29.184-58.368-57.856-4.608-19.968-1.024-40.96 9.728-58.368 5.12-8.704 12.288-15.872 19.968-21.504l11.776-8.704-8.192-12.288c-1.024-1.536-2.048-3.584-2.048-5.632-5.12-23.552-8.192-38.912-8.192-67.072 0-49.664 9.216-98.304 28.16-143.872 17.92-44.032 43.52-83.456 76.8-117.76 32.768-33.792 71.168-60.928 113.664-79.36 44.032-19.456 91.136-29.184 139.776-29.184 46.08 0 91.136 9.216 134.144 26.624l15.36 6.656 26.624-85.504c0.512-2.048 2.048-3.072 4.096-3.584h0.512c1.536 0 3.072 1.024 4.096 2.56l41.984 64 84.992-29.184c0.512 0 1.024-0.512 1.536-0.512 1.024 0 2.56 0.512 3.072 1.024 1.536 1.024 2.048 3.072 2.048 4.608L806.4 225.28l74.752 25.6c2.048 0.512 3.072 2.048 3.584 4.096 0.512 2.048-0.512 3.584-2.048 5.12L799.232 317.44l7.168 12.288c8.704 14.848 16.384 30.72 23.04 46.592 18.432 45.568 28.16 94.208 28.16 143.872 0 31.232-4.096 49.152-10.24 75.776-0.512 1.536-1.024 3.072-2.048 4.608l-6.656 10.24 8.704 8.704c19.968 19.456 27.648 48.64 20.48 75.264-5.12 19.968-17.92 36.864-35.84 47.104-6.144 3.584-12.8 6.144-19.456 8.192l-12.288 3.072 1.024 12.8c1.536 22.528 10.24 77.312 53.76 100.864 5.12 2.56 8.192 8.192 8.192 13.824s-3.584 10.752-8.704 13.312c-2.56 1.536-28.16 13.312-60.928 15.36-3.072 0-6.144 0.512-9.216 0.512-16.896 0-32.768-3.072-47.104-9.216-19.456-8.192-35.84-21.504-49.664-39.936l-9.216-11.776-12.288 9.728c-16.896 13.312-35.328 24.064-54.784 33.28-36.864 16.896-75.776 25.088-116.224 25.088z m83.968-479.744c-25.088 22.016-55.808 42.496-90.112 61.44-39.424 21.504-84.992 40.96-135.168 57.856-54.784 18.432-102.4 29.184-132.608 34.816l-12.8 2.56 0.512 13.312c3.072 78.336 33.28 152.064 83.968 207.872 54.272 59.392 126.464 91.648 202.752 91.648s148.48-32.768 202.752-91.648c51.712-56.832 81.92-132.096 83.968-212.48l0.512-10.24-9.216-4.096c-49.664-22.016-93.696-54.784-132.096-97.28-14.336-15.872-27.136-32.768-38.912-50.176l-9.728-14.336-13.824 10.752z m163.84 335.36c-9.728 15.872-20.992 31.232-33.792 45.568l-8.704 9.728 8.192 10.24c0.512 0.512 0.512 1.024 1.024 1.536 17.92 26.624 43.008 40.448 74.752 40.448l29.696-0.512-15.872-23.552c-17.408-26.112-24.576-56.32-27.136-77.312l-5.12-39.936 13.824 2.56c4.608 1.024 8.704 1.536 13.312 1.536 11.776 0 23.04-3.072 33.28-9.216 15.36-9.216 26.624-23.552 31.232-40.96 9.216-34.816-11.264-71.68-46.08-81.92l-18.944-9.216-2.048 22.528c-3.072 33.28-10.752 66.048-22.528 96.768l-6.656 16.896 2.048 0.512-20.48 34.304z m-524.288 5.12c-2.56 20.992-9.216 51.2-27.136 77.824l-15.872 23.552 29.696 0.512c31.744 0 56.832-13.824 74.24-40.448 0.512-0.512 0.512-1.024 1.024-1.536l8.704-10.24-8.704-10.24c-12.8-14.336-24.064-29.696-33.792-46.08l-19.456-31.744h1.536l-7.168-18.432c-12.288-30.72-19.968-63.488-22.528-96.768l-1.536-18.944-18.944 6.144c-17.408 4.096-32.256 14.848-41.984 29.696-9.728 15.36-12.288 33.28-8.704 50.688 7.168 30.72 33.792 52.224 65.536 52.224 5.12 0 10.24-0.512 15.36-1.536l14.336-1.536-4.608 36.864z m377.344-393.216h2.56c5.12 0.512 9.216 4.096 11.776 8.704 0 0.512 17.92 37.376 55.296 78.336 40.448 44.544 87.04 76.8 138.752 96.256l17.92 6.656 3.072-18.432c1.536-10.752 2.56-22.016 2.56-35.328 0-90.624-34.304-176.128-96.256-240.128-61.952-64-143.872-99.328-231.424-99.328-88.064-0.512-169.984 34.816-231.936 98.816s-96.256 149.504-96.256 240.128c0 12.288 0.512 22.016 2.048 32.256l2.048 15.36 15.36-2.56c22.016-3.584 80.896-14.336 151.552-37.888 74.752-24.576 177.152-69.12 240.64-137.728 3.584-3.072 7.68-5.12 12.288-5.12z m62.464-196.096l10.752 6.144c30.72 16.896 58.88 38.912 83.456 64.512 11.264 11.776 22.016 24.576 32.256 37.888l8.704 11.776 74.752-51.712-69.12-24.064c-2.56-1.024-3.584-3.072-3.584-5.632l11.776-83.968-80.896 27.648c-0.512 0-1.024 0.512-1.536 0.512-1.536 0-3.584-1.024-4.096-2.56l-38.4-57.344-24.064 76.8z m-149.504 593.92c-6.656 0-11.776-2.56-16.896-7.68-8.192-8.704-13.312-24.064-13.824-43.52h64c-0.512 11.264-3.072 32.256-13.312 43.52-4.608 5.12-10.752 7.68-18.432 7.68h-1.536z m142.336-70.656c-19.456 0-34.816-23.04-34.816-51.712s15.872-51.712 34.816-51.712c18.944 0 34.816 23.04 34.816 51.712 0 28.16-15.36 51.712-34.816 51.712z m-285.184 0c-19.456 0-34.816-23.04-34.816-51.712s15.872-51.712 34.816-51.712c19.456 0 34.816 23.04 34.816 51.712 0.512 28.16-15.36 51.712-34.816 51.712z" p-id="7163"></path><path d="M806.4 334.336c-4.608 0-9.216-2.048-12.288-6.144-5.12-6.656-4.096-16.384 2.56-21.504l62.464-48.64-52.736-22.528c-6.144-2.56-9.728-8.704-9.216-15.36l6.144-70.144-69.632 19.968c-6.144 2.048-12.8-0.512-16.896-6.144l-32.768-46.592-28.16 83.456c-2.56 8.192-11.264 12.288-19.456 9.728-8.192-2.56-12.288-11.264-9.728-19.456l37.888-112.128c2.048-5.632 6.656-9.216 12.288-10.24 5.632-1.024 11.264 1.536 14.848 6.144l44.032 62.464 80.896-23.04c4.608-1.536 10.24-0.512 13.824 3.072 4.096 3.072 6.144 8.192 5.632 13.312l-7.168 81.408 67.584 28.672c5.12 2.048 8.704 6.656 9.216 12.288 0.512 5.632-1.536 10.752-5.632 14.336l-83.456 64.512c-3.584 1.536-6.656 2.56-10.24 2.56zM181.248 759.296c-13.824 0-29.696-2.56-43.008-11.264-17.408-10.752-27.648-28.672-30.72-52.736-10.24-81.408 51.712-112.128 85.504-116.736 8.192-1.024 16.384 4.608 17.408 13.312 1.024 8.192-4.608 16.384-12.8 17.408-7.168 1.024-68.096 12.288-59.904 82.944 2.048 14.848 7.168 24.576 16.384 30.72 16.896 10.752 45.056 5.12 54.784 2.048 8.192-2.56 16.896 1.536 19.456 9.728 2.56 8.192-1.536 16.896-9.728 19.456-1.024 0-17.408 5.12-37.376 5.12zM809.472 751.616c-17.408 0-30.72-4.096-31.744-4.608-8.192-2.56-12.288-11.264-9.728-19.456 2.56-8.192 11.264-12.288 19.456-9.728 0 0 28.16 8.704 47.616-2.56 9.728-5.632 15.872-15.36 18.944-29.184 4.096-20.48 2.048-36.864-6.656-49.664-15.36-22.528-47.104-27.136-47.104-27.136-8.192-1.024-14.336-8.704-13.312-17.408 1.024-8.192 8.704-14.336 17.408-13.312 2.048 0 44.544 6.144 68.096 39.424 14.336 19.968 17.92 45.056 11.776 74.24-5.12 23.04-16.384 39.424-33.28 49.664-13.824 7.68-28.672 9.728-41.472 9.728z" fill="#040000" p-id="7164"></path><path d="M503.296 931.84c-13.312 0-27.648-0.512-34.816-1.536C307.2 906.24 240.64 811.52 213.504 736.256c-29.184-80.384-20.992-154.112-20.48-157.184 1.024-8.192 8.704-14.336 16.896-13.312 8.192 1.024 14.336 8.704 13.312 16.896 0 0.512-7.68 70.656 19.456 144.384 35.84 97.28 113.152 155.648 229.888 173.056 9.728 1.536 40.448 2.048 50.176 0.512 54.272-5.632 231.424-46.08 254.464-321.024 0.512-8.704 8.192-14.848 16.384-13.824 8.704 0.512 14.848 8.192 13.824 16.384-25.088 298.496-221.696 342.528-281.6 348.672-4.096 1.024-13.312 1.024-22.528 1.024z" fill="#040000" p-id="7165"></path></svg>